<svg width="850" height="274" viewBox="0 0 850 274" fill="none" xmlns="http://www.w3.org/2000/svg">
<rect width="850" height="274" fill="white"/>
<path d="M438 36V90.7968L413.085 66.0526V176H356.042V119.349H299V62.6977H409.707L382.825 36H438Z" fill="url(#paint0_linear_1_33)"/>
<path d="M111.102 150.25C105.43 153.421 99.7575 155.006 94.0855 155.006C88.4134 155.006 83.456 154.113 79.2131 152.326C74.9702 150.54 71.3526 148.084 68.3602 144.957C62.1969 138.526 59.1152 130.174 59.1152 119.902C59.1152 109.272 62.6882 100.429 69.8341 93.3728C77.0246 86.2269 86.225 82.654 97.4351 82.654C100.874 82.654 104.246 83.1006 107.551 83.9938V54.182H123.964V125.797C123.964 131.737 124.232 135.623 124.768 137.454C125.349 139.285 125.974 140.625 126.644 141.474C127.359 142.322 128.252 143.126 129.324 143.885L116.729 155.006C114.407 153.756 112.531 152.17 111.102 150.25ZM97.2341 139.598C100.986 139.598 104.425 138.883 107.551 137.454V100.34C104.425 99.0449 101.03 98.3973 97.3681 98.3973C93.7058 98.3973 90.5572 98.8886 87.9221 99.8711C85.3317 100.854 83.0987 102.216 81.2229 103.958C77.2926 107.62 75.3275 112.376 75.3275 118.227C75.3275 124.614 77.114 129.705 80.6869 133.502C84.5278 137.566 90.0436 139.598 97.2341 139.598Z" fill="#161616"/>
<path d="M133.115 119.567C133.115 114.342 134.009 109.496 135.795 105.03C137.582 100.563 140.105 96.6555 143.365 93.3058C150.333 86.2046 159.444 82.654 170.698 82.654C180.211 82.654 187.849 85.8026 193.61 92.1C199.282 98.174 202.118 105.811 202.118 115.011C202.118 118.54 201.85 120.952 201.314 122.247C196.848 123.497 187.759 124.123 174.048 124.123H150.467C151.628 128.901 154.33 132.631 158.573 135.31C162.816 137.945 168.331 139.263 175.12 139.263C182.221 139.263 188.318 137.99 193.409 135.444C194.749 134.774 195.754 134.149 196.424 133.569C196.334 135.444 196.223 137.365 196.089 139.33L195.352 149.781C191.957 152.103 186.464 153.711 178.872 154.604C176.638 154.872 174.495 155.006 172.44 155.006C161.096 155.006 151.717 151.701 144.303 145.091C136.845 138.437 133.115 129.929 133.115 119.567ZM184.298 111.126C182.467 101.524 177.241 96.7225 168.622 96.7225C161.833 96.7225 156.675 99.6478 153.146 105.499C152.074 107.285 151.248 109.25 150.668 111.394C151.739 111.439 153.057 111.483 154.62 111.528H159.578C161.23 111.573 162.816 111.595 164.334 111.595H168.153C170.43 111.595 172.664 111.573 174.852 111.528L180.345 111.327C181.819 111.282 183.137 111.215 184.298 111.126Z" fill="#161616"/>
<path d="M199.747 83.9938H218.705L235.052 130.085L250.862 83.9938H269.419L241.751 154.001H227.95L199.747 83.9938Z" fill="#161616"/>
<path d="M499.421 139.263C505.183 139.263 509.135 137.767 511.279 134.774H511.815L512.016 150.317C509.828 152.505 505.763 153.957 499.823 154.671C498.216 154.895 496.206 155.006 493.794 155.006C491.427 155.006 488.837 154.56 486.023 153.666C483.254 152.773 480.887 151.322 478.922 149.312C474.857 145.158 472.825 138.66 472.825 129.817V99.4022H462.709C462.665 98.107 462.642 96.7895 462.642 95.4496V85.1327C462.642 84.3735 462.665 83.9938 462.709 83.9938H472.825V64.9009H489.238V83.9938H507.661V99.4022H489.238V126.735C489.238 133.747 491.181 137.744 495.067 138.727C496.317 139.084 497.769 139.263 499.421 139.263Z" fill="#161616"/>
<path d="M565.048 149.848C558.706 153.287 552.966 155.006 547.83 155.006C542.694 155.006 538.295 154.537 534.633 153.599C530.971 152.617 527.867 151.188 525.321 149.312C520.14 145.516 517.55 140.022 517.55 132.832C517.55 126.4 520.721 121.041 527.063 116.753C533.941 112.108 543.275 109.786 555.066 109.786L557.745 109.853C558.281 109.898 558.884 109.942 559.554 109.987C560.224 109.987 560.827 110.032 561.363 110.121C561.006 102.975 557.924 98.7992 552.118 97.5934C550.197 97.1914 548.143 96.9904 545.955 96.9904C543.811 96.9904 541.689 97.1914 539.59 97.5934C537.536 97.9507 535.526 98.4419 533.561 99.0672C529.229 100.452 526.125 102.037 524.249 103.824L524.048 103.69L522.038 88.8843C529.943 84.7308 538.585 82.654 547.964 82.654C562.524 82.654 571.836 87.9017 575.9 98.3973C577.196 101.747 577.843 105.521 577.843 109.719V133.97C577.843 139.151 579.674 142.68 583.337 144.555L571.211 155.676C568.665 154.336 566.611 152.393 565.048 149.848ZM561.43 122.18C560.224 121.956 558.974 121.845 557.678 121.845H554.999C545.128 121.845 538.853 124.033 536.174 128.41C535.37 129.705 534.968 131.067 534.968 132.497C534.968 133.926 535.213 135.199 535.705 136.315C536.241 137.387 537.112 138.28 538.317 138.995C540.64 140.335 544.079 141.005 548.634 141.005C553.234 141.005 557.522 139.91 561.497 137.722C561.452 137.231 561.43 136.717 561.43 136.181V122.18Z" fill="#161616"/>
<path d="M607.494 146.498C607.494 150.339 607.583 152.84 607.762 154.001H590.746V54.182H607.494V146.498Z" fill="#161616"/>
<path d="M616.176 119.567C616.176 114.342 617.07 109.496 618.856 105.03C620.643 100.563 623.166 96.6555 626.426 93.3058C633.394 86.2046 642.505 82.654 653.759 82.654C663.272 82.654 670.91 85.8026 676.671 92.1C682.343 98.174 685.179 105.811 685.179 115.011C685.179 118.54 684.911 120.952 684.375 122.247C679.909 123.497 670.82 124.123 657.109 124.123H633.528C634.689 128.901 637.391 132.631 641.634 135.31C645.877 137.945 651.392 139.263 658.181 139.263C665.282 139.263 671.378 137.99 676.47 135.444C677.81 134.774 678.815 134.149 679.485 133.569C679.395 135.444 679.284 137.365 679.15 139.33L678.413 149.781C675.018 152.103 669.525 153.711 661.933 154.604C659.699 154.872 657.556 155.006 655.501 155.006C644.157 155.006 634.778 151.701 627.364 145.091C619.906 138.437 616.176 129.929 616.176 119.567ZM667.359 111.126C665.528 101.524 660.302 96.7225 651.683 96.7225C644.894 96.7225 639.736 99.6478 636.207 105.499C635.135 107.285 634.309 109.25 633.729 111.394C634.8 111.439 636.118 111.483 637.681 111.528H642.639C644.291 111.573 645.877 111.595 647.395 111.595H651.214C653.491 111.595 655.725 111.573 657.913 111.528L663.406 111.327C664.88 111.282 666.198 111.215 667.359 111.126Z" fill="#161616"/>
<path d="M710.542 145.426C710.542 149.356 710.721 152.215 711.078 154.001H694.263V83.9938H710.542V89.9562C716.438 85.088 722.735 82.654 729.434 82.654C736.759 82.654 742.61 85.155 746.987 90.1572C751.363 95.1146 753.552 101.658 753.552 109.786V136.449C753.552 143.997 753.664 148.53 753.887 150.049C754.11 151.567 754.4 152.55 754.758 152.996C755.16 153.443 755.495 153.845 755.763 154.202L755.629 154.47C752.011 154.158 749.376 154.001 747.723 154.001H743.034C741.605 154.001 739.684 154.068 737.273 154.202V117.691C737.273 104.605 733.298 98.0623 725.348 98.0623C719.453 98.0623 714.517 101.099 710.542 107.173V145.426Z" fill="#161616"/>
<path d="M797.405 139.263C803.167 139.263 807.119 137.767 809.263 134.774H809.799L810 150.317C807.812 152.505 803.747 153.957 797.807 154.671C796.199 154.895 794.19 155.006 791.778 155.006C789.411 155.006 786.82 154.56 784.007 153.666C781.238 152.773 778.871 151.322 776.906 149.312C772.841 145.158 770.809 138.66 770.809 129.817V99.4022H760.693C760.649 98.107 760.626 96.7895 760.626 95.4496V85.1327C760.626 84.3735 760.649 83.9938 760.693 83.9938H770.809V64.9009H787.222V83.9938H805.645V99.4022H787.222V126.735C787.222 133.747 789.165 137.744 793.051 138.727C794.301 139.084 795.753 139.263 797.405 139.263Z" fill="#161616"/>
<path d="M330.388 241.971C328.673 241.864 326.636 241.81 324.278 241.81H323.421V206.036C324.528 206.125 325.314 206.17 325.779 206.17H326.877C328.289 206.17 329.459 206.098 330.388 205.956V220.238H342.982V206.036C344.465 206.125 345.903 206.17 347.297 206.17C348.708 206.17 349.592 206.098 349.95 205.956V241.971C349.092 241.864 347.395 241.81 344.858 241.81H342.982V226.67H330.388V241.971Z" fill="#161616"/>
<path d="M377.272 206.036C378.38 206.125 379.3 206.17 380.032 206.17H382.256C383.007 206.17 383.793 206.098 384.614 205.956V228.117C384.614 232.512 383.284 236.04 380.622 238.702C378.103 241.221 374.941 242.48 371.136 242.48C366.973 242.48 363.606 241.399 361.033 239.238C358.157 236.808 356.719 233.306 356.719 228.733V206.036C358.201 206.125 359.595 206.17 360.899 206.17C362.221 206.17 363.311 206.098 364.168 205.956V229.081C364.168 231.332 364.856 233.083 366.232 234.334C367.518 235.477 369.126 236.049 371.055 236.049C373.913 236.049 375.816 234.584 376.763 231.654C377.102 230.6 377.272 229.296 377.272 227.742V206.036Z" fill="#161616"/>
<path d="M413.384 239.211C412.08 240.247 410.383 241.051 408.292 241.623C406.202 242.194 403.63 242.48 400.575 242.48C397.538 242.48 394.304 242.203 390.874 241.649V206.331C394.34 205.777 397.341 205.5 399.878 205.5C402.433 205.5 404.523 205.741 406.149 206.224C407.792 206.706 409.132 207.358 410.168 208.18C412.205 209.77 413.223 211.833 413.223 214.37C413.223 216.889 412.303 218.979 410.463 220.64C412.642 221.319 414.331 222.606 415.528 224.499C416.617 226.196 417.162 228.081 417.162 230.153C417.162 232.208 416.859 233.967 416.251 235.432C415.662 236.897 414.706 238.157 413.384 239.211ZM397.976 219.649C398.726 219.774 399.664 219.836 400.789 219.836C401.915 219.836 402.835 219.694 403.549 219.408C404.282 219.104 404.845 218.729 405.238 218.282C405.881 217.55 406.202 216.531 406.202 215.227C406.202 212.494 404.594 211.127 401.379 211.127C400.021 211.127 398.887 211.181 397.976 211.288V219.649ZM401.941 225.383C400.441 225.383 399.119 225.482 397.976 225.678V236.21C399.226 236.531 400.539 236.692 401.915 236.692C403.29 236.692 404.496 236.531 405.532 236.21C406.586 235.87 407.471 235.415 408.185 234.843C409.632 233.664 410.356 232.163 410.356 230.341C410.356 227.036 407.551 225.383 401.941 225.383Z" fill="#161616"/>
<defs>
<linearGradient id="paint0_linear_1_33" x1="438" y1="36" x2="313.305" y2="161.556" gradientUnits="userSpaceOnUse">
<stop stop-color="#F29E91"/>
<stop offset="0.219321" stop-color="#FB7988"/>
<stop offset="0.43342" stop-color="#F151E0"/>
<stop offset="1" stop-color="#4F83FF"/>
</linearGradient>
</defs>
</svg>
